<?xml version="1.0" standalone="no"?>
<!DOCTYPE svg PUBLIC "-//W3C//DTD SVG 20010904//EN"
 "http://www.w3.org/TR/2001/REC-SVG-20010904/DTD/svg10.dtd">
<svg version="1.0" xmlns="http://www.w3.org/2000/svg"
 width="500.000000pt" height="500.000000pt" viewBox="0 0 500.000000 500.000000"
 preserveAspectRatio="xMidYMid meet">

<g transform="translate(0.000000,500.000000) scale(0.100000,-0.100000)"
fill="#000000" stroke="none">
<path d="M2279 4125 c-267 -43 -468 -130 -659 -282 -188 -151 -338 -366 -410
-589 -93 -291 -98 -520 -18 -814 66 -239 226 -479 435 -649 247 -201 607 -310
926 -282 275 25 501 112 704 271 262 204 414 452 489 800 29 130 26 362 -4
500 -122 544 -501 921 -1037 1031 -129 26 -314 33 -426 14z m327 -156 c163
-22 337 -88 482 -182 38 -24 111 -85 164 -136 364 -348 460 -884 238 -1336
-78 -159 -123 -221 -249 -339 -138 -128 -313 -226 -485 -270 -293 -77 -563
-48 -831 86 -329 166 -568 498 -616 855 -17 126 -6 356 21 458 82 305 268 551
540 715 114 69 286 130 415 149 87 12 232 13 321 0z"/>
<path d="M2328 3870 c-43 -8 -142 -36 -160 -47 -13 -7 40 -99 73 -127 18 -15
58 -40 90 -56 70 -36 77 -45 48 -69 -14 -11 -20 -24 -16 -34 8 -21 31 -22 47
-2 18 21 53 19 74 -6 16 -20 19 -20 34 -6 13 14 14 20 3 41 -17 31 -10 41 52
72 81 41 105 62 137 117 16 29 30 55 30 59 0 12 -104 46 -177 57 -80 12 -165
13 -235 1z"/>
<path d="M1955 3825 c-184 -76 -403 -294 -513 -510 -36 -73 -88 -236 -102
-325 -14 -90 -12 -270 4 -360 28 -156 104 -340 141 -340 22 0 33 30 50 137 56
355 160 868 205 1004 23 70 56 137 84 168 20 22 120 91 133 91 19 0 93 111 93
140 0 26 -21 25 -95 -5z"/>
<path d="M2850 3830 c0 -47 70 -126 156 -177 112 -65 139 -126 229 -518 39
-169 103 -514 131 -710 16 -108 36 -154 59 -137 24 16 53 71 83 153 99 277 90
551 -28 831 -93 223 -298 441 -510 542 -86 42 -120 46 -120 16z"/>
<path d="M2110 3783 c-33 -27 -73 -100 -64 -115 3 -4 24 -8 47 -8 24 0 66 -11
97 -26 115 -54 153 -65 169 -50 12 12 5 19 -45 44 -71 36 -130 92 -154 144
l-17 39 -33 -28z"/>
<path d="M2746 3776 c-10 -42 -90 -119 -155 -150 -34 -17 -60 -35 -58 -40 7
-20 64 -9 148 30 46 20 105 39 132 42 26 2 47 9 47 14 0 32 -72 128 -96 128
-6 0 -15 -11 -18 -24z"/>
<path d="M1993 3638 c-63 -13 -68 -26 -49 -104 36 -141 42 -259 23 -452 -22
-225 -36 -443 -39 -602 -3 -151 10 -193 62 -204 18 -3 231 -6 474 -6 330 0
447 3 465 13 48 24 54 67 41 335 -12 271 -26 443 -40 515 -19 93 -14 148 37
444 5 27 2 33 -25 47 -38 19 -133 20 -182 2 -128 -48 -198 -82 -222 -108 -23
-24 -30 -27 -47 -18 -11 5 -25 18 -30 28 -9 16 -11 15 -33 -6 -32 -30 -64 -28
-81 4 -13 24 -45 42 -177 94 -57 22 -123 29 -177 18z m807 -1175 c0 -28 -29
-9 -104 66 -106 107 -91 125 20 24 46 -43 84 -84 84 -90z m-540 146 c0 -6 -37
-46 -82 -90 -57 -53 -86 -75 -93 -68 -7 8 17 36 75 90 85 79 100 89 100 68z"/>
<path d="M1878 3580 c-58 -45 -114 -235 -207 -710 -92 -469 -106 -622 -64
-707 18 -37 19 -38 123 -60 58 -12 111 -23 118 -23 7 0 23 21 34 48 20 43 22
72 29 342 7 294 19 481 40 659 13 106 7 236 -16 361 -22 111 -25 116 -57 90z"/>
<path d="M2977 3523 c-27 -119 -40 -250 -33 -320 40 -420 58 -727 50 -858 -7
-113 12 -215 46 -249 19 -19 21 -19 132 5 l112 24 18 45 c34 91 16 264 -83
760 -78 393 -115 529 -169 614 -41 64 -55 60 -73 -21z"/>
<path d="M1975 2242 c-3 -8 -5 -22 -5 -31 0 -17 30 -18 443 -24 243 -4 459 -4
480 -1 33 6 37 10 37 35 l0 29 -475 2 c-388 3 -476 1 -480 -10z"/>
<path d="M1953 2118 c-13 -6 -23 -16 -23 -23 0 -6 -12 -22 -26 -36 -22 -20
-38 -25 -111 -29 -51 -3 -88 -10 -90 -16 -7 -20 47 -73 125 -126 278 -187 653
-241 964 -138 153 51 354 167 393 227 29 43 15 53 -74 53 -71 0 -83 3 -110 26
-17 14 -31 31 -31 36 0 36 -25 37 -515 37 -324 0 -487 -4 -502 -11z"/>
<path d="M1204 1417 c16 -12 18 -26 15 -105 l-4 -92 58 0 c48 0 62 4 82 25 30
29 31 39 7 63 -16 16 -17 21 -4 40 32 49 -12 82 -110 82 -54 0 -59 -2 -44 -13z
m118 -20 c22 -35 -17 -79 -56 -64 -16 7 -23 67 -9 81 10 10 56 -3 65 -17z m2
-93 c23 -22 20 -41 -9 -60 -39 -25 -65 -11 -65 37 0 36 2 39 29 39 16 0 37 -7
45 -16z"/>
<path d="M1463 1419 c14 -8 17 -24 17 -82 0 -95 14 -117 76 -117 68 0 84 22
84 115 0 60 3 76 18 84 13 8 9 10 -23 10 -22 0 -34 -3 -27 -6 8 -3 12 -31 12
-88 0 -73 -3 -86 -19 -95 -28 -14 -57 -12 -75 6 -24 23 -23 159 2 173 13 8 6
10 -33 10 -39 0 -46 -2 -32 -10z"/>
<path d="M1762 1418 c-6 -6 -12 -25 -12 -40 0 -23 9 -34 47 -58 56 -36 69 -55
53 -76 -25 -29 -76 -10 -93 36 -3 8 -6 -1 -6 -20 l-1 -35 54 -3 c49 -3 57 0
71 22 24 36 11 62 -45 97 -54 33 -66 52 -45 69 21 17 64 4 75 -23 8 -20 9 -19
9 9 1 29 0 30 -47 33 -27 1 -53 -4 -60 -11z"/>
<path d="M1999 1401 c-24 -24 -29 -38 -29 -76 0 -64 39 -105 100 -105 68 0
110 58 96 135 -14 75 -111 102 -167 46z m115 -3 c24 -34 21 -123 -4 -148 -28
-28 -66 -26 -87 6 -23 35 -21 118 2 144 25 27 70 26 89 -2z"/>
<path d="M2276 1417 c-29 -21 -17 -67 24 -94 61 -38 72 -51 60 -73 -15 -28
-54 -25 -79 6 l-21 27 0 -29 c0 -28 2 -29 48 -32 64 -4 87 15 83 69 0 9 -26
33 -56 53 -30 20 -55 40 -55 44 0 15 16 30 35 35 20 5 20 5 -1 6 -11 0 -28 -5
-38 -12z"/>
<path d="M2630 1332 c0 -71 -4 -102 -12 -105 -7 -3 5 -5 27 -5 22 0 32 2 23 5
-15 4 -18 16 -18 76 l1 72 41 -80 41 -80 37 80 38 80 1 -72 c1 -60 -2 -72 -16
-76 -10 -3 4 -5 30 -6 44 -1 47 0 33 15 -24 24 -23 169 2 183 14 9 12 10 -14
11 -30 0 -34 -5 -65 -75 -19 -41 -37 -75 -40 -75 -3 0 -21 33 -40 73 -20 43
-41 73 -51 75 -16 3 -18 -7 -18 -96z"/>
<path d="M2982 1405 c-73 -61 -34 -185 59 -185 75 0 128 80 99 150 -26 62
-105 80 -158 35z m94 7 c59 -39 35 -182 -30 -182 -61 0 -90 124 -40 174 16 17
51 21 70 8z"/>
<path d="M3233 1419 c14 -8 17 -25 17 -94 0 -69 -3 -86 -17 -95 -14 -8 1 -10
61 -8 74 3 80 5 107 36 46 51 35 128 -22 158 -33 17 -175 20 -146 3z m140 -30
c24 -30 23 -99 -3 -127 -22 -24 -63 -38 -79 -27 -12 7 -15 167 -4 179 13 13
67 -3 86 -25z"/>
<path d="M3565 1343 c-21 -49 -45 -96 -53 -105 -14 -17 -12 -18 19 -18 24 0
30 3 20 9 -12 8 -13 14 -3 35 9 21 18 26 50 26 31 0 41 -5 50 -24 7 -17 7 -27
-1 -35 -8 -8 1 -11 33 -11 32 1 40 3 30 10 -9 5 -34 52 -55 104 -22 53 -43 96
-46 96 -3 0 -23 -39 -44 -87z m50 -3 c20 -39 20 -40 -15 -40 -16 0 -30 2 -30
4 0 8 22 66 26 66 2 0 10 -13 19 -30z"/>
<path d="M2358 1403 c5 -10 12 -25 15 -33 3 -8 6 0 6 18 1 22 -4 32 -14 32
-12 0 -13 -5 -7 -17z"/>
</g>
</svg>
